<svg xmlns="http://www.w3.org/2000/svg" width="252" height="80.113"><defs><clipPath id="A"><path fill="none" d="M0 0h252v80.113H0z"/></clipPath></defs><g clip-path="url(#A)" fill="#335274"><path d="M15.032 28.867a25.62 25.62 0 0 0 3.836-3.538 12.05 12.05 0 0 0 1.886-2.121c.053-.081.112-.154.159-.217l.084-.111a13.04 13.04 0 0 0 2.525-4.67A14.58 14.58 0 0 0 24 10.694a8.3 8.3 0 0 0-2.105-3.79 23.6 23.6 0 0 0-8.012-5.24A21.69 21.69 0 0 0 6.2.127a17.92 17.92 0 0 0-3.608.367 1.42 1.42 0 0 0-.425.185c-.034.02-.067.035-.112.054l-.22.112v.232c.01.783 1.336.8 2.694.779h.3.1l.411-.006h.2a18.48 18.48 0 0 1 4.751.591c3.315.846 7.539 2.81 8.986 5.134 1.309 1.719 1.917 3.871 1.7 6.021a15.23 15.23 0 0 1-1.618 5.074 10.81 10.81 0 0 1-2.093 2.817l-.2.212c-.382.426-.816.9-1.3 1.485-1.38 1.645-3.386 3.008-6.714 4.547a.36.36 0 0 1-.082.041c.008-.152.008-.3.014-.441L9 27.049c.025-1.464 0-3.363-.023-4.891l-.018-1.929c0-1.091.055-2.024.1-2.841a9.95 9.95 0 0 0-.026-2.585A2.48 2.48 0 0 0 7 13.017c-.13-.04-.253-.081-.366-.121l-.1-.03a.5.5 0 0 0-.312-.049c-.721.058-1.02.809-1.046 2.67-.039 2.47.079 6.428.181 9.92l.064 2.257.036 1.483c-.773.263-1.589.381-2.405.348-.789-.078-1.378-.111-1.805-.111s-1.2 0-1.248.528c-.086.88 3.372 1.738 5.511 2.183v1.115a215.92 215.92 0 0 0 .456 8.018 65.93 65.93 0 0 1 .238 3.834l.039.855a3.77 3.77 0 0 0 .115.624l.06.279c0 .029.2 2.515 1.18 2.515a.32.32 0 0 1 .073.006c.039.007.078.01.118.01.2 0 .329-.119.4-.357a13.69 13.69 0 0 0 .416-3.436l.067-2.491.2-6.92c-.022-1.126 0-2.807.022-4.168a18.61 18.61 0 0 0 1.283-.354l.181-.05a13.24 13.24 0 0 0 4.566-2.634zm85.113 18.401h-.417-.381-.156a18.73 18.73 0 0 0-2.548.226 16.07 16.07 0 0 1-2.486.194h-.191a24.3 24.3 0 0 1-5.138-.67 8.8 8.8 0 0 1-3.484-1.818 8.18 8.18 0 0 1-2.7-3.831l-.177-.609c-.163-.518-.163-.518.987-.895l.735-.244a6.71 6.71 0 0 0 3.165-2.355 4.81 4.81 0 0 0 .7-2.273 2.71 2.71 0 0 0-2.2-2.293l-.146-.046a3.9 3.9 0 0 0-3.429.242 6.94 6.94 0 0 0-3.428 4.313c-.13.616-.652 1.072-1.28 1.119l-1.417.234a18.79 18.79 0 0 1-3.118.358l-.606.01-.87.015c-.512.012-1.024-.025-1.529-.112a26.95 26.95 0 0 1-.286-5.323 2.09 2.09 0 0 0 .175-.766l.426-5.863.164-2.8.052-.92.092-1.6.058-1.08c.004-.074.014-.147.028-.22a1.29 1.29 0 0 0 .051-.327l.14-1.568.016-.118c.171-1.118.195-2.254.072-3.378a.28.28 0 0 1 0-.113c.198-.745-.187-1.521-.9-1.813a10.43 10.43 0 0 1-1.419-1.036c-.569-.465-.853-.69-1.158-.69l-.073.009c-.629.122-.987 1.538-.929 2.2a98.62 98.62 0 0 1 .15 11.274v.043c-.08 3.252-.164 6.617.039 9.966a113.87 113.87 0 0 0 .3 3.409 48.7 48.7 0 0 1-7.279-3.8l-2.572-1.521 2.28 2.384c2 2.1 4.07 4.269 6.979 5.217l.142.049c.677.215.84.269.925.8.252 1.578.484 2.8.711 3.731.2.83.416 1.56.626 2.265l.117.405c.123.4.24.812.365 1.266a.6.6 0 0 1 .023.083l.017.049a1.2 1.2 0 0 0 1.165 1.1l.4.054.037-.388c.094-.29.25-.555.456-.779.368-.348.565-.841.537-1.347-.177-.815-.422-1.6-.695-2.463l-.02-.084c-.177-.564-.379-1.234-.544-1.9a10.56 10.56 0 0 1-.318-1.718c.4.028.772.061 1.146.1l.157.011a19.08 19.08 0 0 0 2.588.133c1.206-.032 2.417-.175 3.588-.308l.368-.036.871-.1.209.346c.408.651.713 1.165 1 1.659a12.07 12.07 0 0 0 8.876 6.358 17.16 17.16 0 0 0 2.711.205 30.44 30.44 0 0 0 2.54-.127 24.95 24.95 0 0 0 5.67-1.173 1.74 1.74 0 0 0 .556-.349l.1-.067a3.51 3.51 0 0 1 .291-.225l.954-.68h-1.859m-35.549 1.203c-.567.374-1.327.242-1.735-.3a14.07 14.07 0 0 1-1.954-2.3 9.75 9.75 0 0 0-4.851-3.979 14.03 14.03 0 0 0-5.44-.618 26.51 26.51 0 0 0-7.079 1.715l-1.622.592-.553.2-3.217 1.173a3.24 3.24 0 0 1-.594.126 3.65 3.65 0 0 1 .76-1.1l1.568-1.355c1.023-.84 1.732-2.001 2.011-3.294.124-.683-.076-1.385-.542-1.9-.794-.847-1.912-1.316-3.073-1.29a5.35 5.35 0 0 0-4.378 2.439c-.686 1.09-1.1 2.329-1.207 3.613a3.35 3.35 0 0 1-1.618 2.457c-.669.415-1.376.764-2.112 1.043a1.7 1.7 0 0 1-.633.117 2.3 2.3 0 0 1-1.99-1.107 8.61 8.61 0 0 1-.018-3.123l.026-.247.046-.435.029-.377c.116-1.371.171-2.058-1.183-2.861-.036-.019-.21-.154-.266-.2-.594-.456-.743-.547-.883-.583a.84.84 0 0 0-.141-.012c-.567 0-1.02.657-2 2.284l-.768 1.238c-1.005 1.195-2.158 2.257-3.433 3.158-.274.175-.541.189-.668.045a.66.66 0 0 1-.126-.428 4.66 4.66 0 0 1 .284-1.654 6.3 6.3 0 0 1 .473-.907l.018-.025a5.15 5.15 0 0 0 .569-1.214c.261-.928.39-1.888.386-2.852 0-.532-.668-1.013-1.024-1.2-.074-.032-.154-.048-.234-.047-.393.062-.753.253-1.024.544a10.65 10.65 0 0 0-1.392 1.657c-1.37 2.4-2.316 4.43-1.127 7.055a5.79 5.79 0 0 0 1.75 1.991 4.29 4.29 0 0 0 2.19.57 6.69 6.69 0 0 0 2.964-.766 11.31 11.31 0 0 0 2.267-1.767 6.2 6.2 0 0 1 .478 1.259 6.32 6.32 0 0 0 .421 1.146c1.213 1.797 3.283 2.82 5.447 2.693a6.29 6.29 0 0 0 4.086-1.348l.1-.087a4.86 4.86 0 0 1 .8-.639c.132.07.256.153.37.249l.046.035.606.413.437.275.281.181c1.135.848 2.642 1.007 3.929.416l1.25-.543.169-.07c1.076-.429 2.125-.923 3.141-1.48a20.92 20.92 0 0 1 7.845-2.63 5.05 5.05 0 0 1 5.4 2.349 25.77 25.77 0 0 0 3.175 3.9c.676.729 1.627 1.142 2.621 1.136a3.85 3.85 0 0 0 3.683-2.769l.1-.313-.295-.134a2.52 2.52 0 0 0-2.56-.114m66.977-6.016l-3.008-3.8c-1.382-1.866-2.652-3.906-3.408-5.126l-.06-.1-.689-1.1c-.283-.459-.462-.974-.524-1.51a12.69 12.69 0 0 1 1.706-3.6 37.51 37.51 0 0 0 3.008-6.421l.124-.342c1.3-3.431 1.867-6.137.955-9.828a6.62 6.62 0 0 0-1.253-2.515l-.066-.1-.434-.633a15.51 15.51 0 0 0-5.86-4.979C118.477.976 114.683.177 110.837.04c-.288 0-.584-.015-.88-.024L109.382 0c-2.476.044-7.057.278-9.946 1.383-.7.269-1.795 1.223-1.724 1.6.023.108.112.238.427.238a6.01 6.01 0 0 0 1.222-.235c.273-.068.536-.135.694-.154a11.84 11.84 0 0 0 1.277-.26 10.94 10.94 0 0 1 1.706-.318c.711-.049 1.306-.118 1.879-.185.842-.094 1.638-.185 2.718-.214h1.286.376l1.83.131.224.016c2.67.253 5.276.969 7.7 2.118l.044.019c1.975.9 4.676 2.139 5.886 4.649a11.58 11.58 0 0 1 1.069 4.979 27.14 27.14 0 0 1-3.181 9.913l-.249.408a58.13 58.13 0 0 0-3.438 5.97 4.17 4.17 0 0 0 .9 3.674l.058.08c1.884 2.647 2.913 4.107 4.377 5.838a64.68 64.68 0 0 0 4.62 4.95l.092.1 2.15 2.143c2.469 2.5 3.242 2.843 3.707 2.843.224.004.437-.095.579-.267a.78.78 0 0 0 .163-.491c0-.688-.527-1.638-2.021-3.643-.522-.688-1.434-1.814-2.253-2.824"/><path d="M111.513 26.764l-.023-2.442a4.44 4.44 0 0 0-.323-1.252c-.237-.5-.582-.941-1.01-1.291l-.274-.256c-.195-.227-.469-.37-.767-.4-.44 0-.659.447-.809.74l-.065.123a5.97 5.97 0 0 0-.512 2.711l.066 3.294c-.032.8.061 5.786.1 7.917l.017.877a77.11 77.11 0 0 0 .718 9.3l.172 1.173c.191 1.352.315 2.249.807 2.249.046 0 .091-.009.133-.027.857-.29 1.114-1.12 1.451-4.689l.153-4.759a20.86 20.86 0 0 1 .087-2.121l.115-2.362v-.808l-.021-4.96c-.054-.869-.033-2.011-.019-3.015m109.034 22.809h0 0zm30.759-9.787c-.977-1.779-2.81-2.921-4.837-3.014a7.55 7.55 0 0 0-.837-.05c-.29-.014-.579.025-.855.115-.284.118-.515.336-.65.612a.37.37 0 0 0 .024.312 1.6 1.6 0 0 0 1.085.629 4.08 4.08 0 0 1 .942.362 4.42 4.42 0 0 1 2.576 3.747 2.89 2.89 0 0 1-1.06 2.283 3.91 3.91 0 0 1-2.5.957c-.694-.008-1.37-.229-1.934-.634-1.062-.613-1.482-1.934-.969-3.048a4.31 4.31 0 0 1 1.99-1.981c.511-.3.705-.532.652-.766-.087-.4-.593-.627-1.389-.627a6.88 6.88 0 0 0-3.314.8 8.46 8.46 0 0 0-2.407 2.527 11.1 11.1 0 0 1-3.353 3.266c-.441.255-.943.386-1.453.378a4.4 4.4 0 0 1-2.97-1.826 17.35 17.35 0 0 0-2.586-2.967c-.781-.681-1.766-1.085-2.8-1.149-.913-.101-1.834.083-2.638.527l-.4.207-.609.358c-.175.102-.5.345-.616.181 0 0-.024-.036-.388-.5-.723-1.211-2.069-1.908-3.475-1.8a5.45 5.45 0 0 0-3.666 2l-2.4 2.982a7.27 7.27 0 0 1-1.965 1.61c-.604.306-1.274.461-1.951.452-1.293-.193-2.466-.864-3.287-1.881l-.236-.222c-.883-.854-1.4-1.126-1.933-1.083a4.7 4.7 0 0 0-2.171.835 29.27 29.27 0 0 1-2.713 1.641c-.584.293-1.226.455-1.879.474-.871-.035-1.682-.458-2.208-1.153a2.69 2.69 0 0 1-.22-2.533c.272-.898.965-1.608 1.857-1.9a3.64 3.64 0 0 1 1.052-.223 4.04 4.04 0 0 1 1.239.235l.342.1c.102.027.202.06.3.1a1.15 1.15 0 0 0 .328.091c.89.042 1.729-.416 2.175-1.187.088-.276-.016-.578-.256-.741a8.4 8.4 0 0 0-3.133-1.383c-.431-.083-.868-.126-1.307-.129a9.36 9.36 0 0 0-5.141 1.885c-1.089.797-2.054 1.751-2.864 2.83l-.257.334-.258.323a17.75 17.75 0 0 1-2.4 2.6l-.322.284c-.262.262-.587.453-.943.555a1.47 1.47 0 0 1-.477.058h-.254c-1.371 0-1.938-.963-2.5-2.738a15.72 15.72 0 0 0-2.424-4.932c-.779-.973-1.963-1.533-3.209-1.52a4.71 4.71 0 0 0-3.245 1.314 14.1 14.1 0 0 0-2.327 2.856l-.318.453c-.613.892-1.018 1.479-1.521 1.479a2.08 2.08 0 0 1-1.169-.6 7.04 7.04 0 0 0-4.673-1.934 7.99 7.99 0 0 0-1.673.188c-.442.091-.9-.344-1.348-.785l-.047-.047-.465-.423c-1.3-1.062-3.739-1.534-5.079-1.721a6.59 6.59 0 0 0-.77-.1l-.852-.034a5.19 5.19 0 0 0-2.214.445c-1.337.592-1.325 1.115-1.144 1.9l.035.134a6.75 6.75 0 0 1 .156 2.88l-.024.147c-.242 1.315-.5 2.672-2.749 3.33a2.89 2.89 0 0 1-.818.116 4.26 4.26 0 0 1-1.949-.555l-.129-.068a4.78 4.78 0 0 1-1.774-2.805c-.239-1.047.022-2.145.706-2.972.655-.616 1.435-1.084 2.286-1.372l.065-.023c.938-.388 1.082-.572 1.093-.706.014-.108-.082-.18-.124-.214a2.77 2.77 0 0 0-1.643-.477c-1.074.043-2.118.366-3.029.935-2.448 1.781-3.334 5.021-2.134 7.8a6.32 6.32 0 0 0 6.028 3.933 9.2 9.2 0 0 0 3.95-.71 7.08 7.08 0 0 0 2.472-2.278c.596-.966.887-2.09.836-3.224-.162-2.244-.1-2.275.29-2.435l.167-.071a3.35 3.35 0 0 1 2.478-.165 6.99 6.99 0 0 1 3.448 3.443 13.17 13.17 0 0 1 .8 2.417 8.1 8.1 0 0 0 .353 1.2l.054.13a2.9 2.9 0 0 0 .61 1.043 1.98 1.98 0 0 0 1.333.655.9.9 0 0 0 .837-.469l.034-.067-.006-.068c-.3-2.542.217-3.772.705-4.358.279-.378.712-.614 1.181-.644a.46.46 0 0 1 .108.011c.538.081 1.079 1.015 1.4 1.569l.149.262.237.393a12.6 12.6 0 0 0 1.857 2.6c.329.367.788.593 1.28.629.621 0 1.076-.459 1.288-1.288.3-1.181.56-1.93.863-2.789.281-.84.64-1.652 1.071-2.426a4.99 4.99 0 0 1 2.027-2.143.74.74 0 0 1 .392-.106c.792 0 1.791 1.1 2.428 2.681 1.414 3.48 2.887 5.434 4.483 5.98.46.183.95.276 1.445.272 1.268-.034 2.484-.509 3.44-1.343.742-.595 1.424-1.26 2.036-1.987l.155-.183.3-.339a7.06 7.06 0 0 0 .484-.584.76.76 0 0 0 .038.1c.399 1.288 1.235 2.395 2.365 3.131a6.79 6.79 0 0 0 3.7 1.208c1.487-.083 2.916-.599 4.113-1.485l.457-.37.882-.679a1.93 1.93 0 0 1 1.029-.506 1.63 1.63 0 0 1 1.163.363c.146.143.91.777 1.093.916 1.537 1.159 2.561 1.749 3.906 1.749h.089a5.32 5.32 0 0 0 4.069-1.592 25.77 25.77 0 0 0 2.786-3.506c.967-1.38 1.908-2.142 2.6-1.9 1.2.419 1.1 1.19 1.287 2.351l.115.652.195 1.126c.025.907.374 1.775.985 2.446a2.17 2.17 0 0 0 .834.467 6.92 6.92 0 0 0 1.262.071c.46.06.837-.592 1.006-1.235.21-.845.478-1.676.8-2.485.511-1.262.977-2.339 2.345-2.4.555-.028 1.101.143 1.54.483a13.06 13.06 0 0 1 2.649 3.081 5.47 5.47 0 0 0 3.525 2.485c1.204.096 2.399-.284 3.327-1.057a18.54 18.54 0 0 0 2.639-2.51l.374-.408c.009.018.019.036.031.053a4.25 4.25 0 0 0 .858 1.457 6.43 6.43 0 0 0 4.992 2.313c1.979.104 3.92-.576 5.4-1.894a6.82 6.82 0 0 0 1.237-7.782M55.669 73.119h2.62a1.78 1.78 0 0 1 1.988 1.7c.039.75-.467 1.42-1.2 1.586l.009.019c.809.185 1.379.909 1.37 1.739 0 1.032-.65 1.853-2.58 1.853h-2.207zm.789 2.961h1.378c1.19 0 1.654-.591 1.654-1.174 0-.774-.433-1.137-1.339-1.137h-1.693zm0 3.287h1.476c1.162 0 1.733-.382 1.733-1.242 0-.88-.729-1.4-1.851-1.4h-1.358z"/><path d="M72.896 73.119v.649h-3.475v2.313h2.471v.65h-2.471v2.637h3.672v.65h-4.459v-6.9zm7.325 6.898l2.186-6.9h1.171l2.186 6.9h-.831l-.669-2.16h-2.55l-.669 2.16zm1.693-2.809h2.156l-1.024-3.555h-.113zm16.115.746c-.146 1.26-1.232 2.198-2.5 2.16-1.595 0-2.718-1.128-2.718-3.545 0-2.245 1-3.545 2.718-3.545a2.33 2.33 0 0 1 2.4 2.007l-.728.21c-.256-.974-.709-1.567-1.772-1.567-1.024 0-1.831.918-1.831 2.9 0 2 .807 2.895 1.989 2.895 1.092 0 1.516-.8 1.732-1.643zm12.826-4.835v6.9h-.788v-3.29h-3.406v3.287h-.788v-6.9h.788v2.962h3.406v-2.959zm17.847 6.899v-6.9h2.284c1.536 0 2.373.669 2.373 1.816a1.8 1.8 0 0 1-1.418 1.8l1.506 3.286h-.855l-1.438-3.134h-1.663v3.134zm.788-3.784h1.427c1.082 0 1.654-.392 1.654-1.262 0-.926-.65-1.2-1.663-1.2h-1.418zm16.517-3.115v.649h-3.475v2.313h2.471v.65h-2.471v2.637h3.672v.65h-4.459v-6.9zm11.501 1.758c-.193-.744-.886-1.248-1.654-1.2-.827 0-1.32.382-1.329 1.07-.02 1.51 4 1.128 4 3.344 0 1-.581 2.026-2.392 2.026a2.61 2.61 0 0 1-2.539-1.8l.718-.248a1.93 1.93 0 0 0 1.861 1.4c1.043 0 1.564-.535 1.564-1.242 0-1.758-4-1.243-4-3.421.033-.525.281-1.012.685-1.349a1.91 1.91 0 0 1 1.451-.429c1.081-.048 2.053.657 2.342 1.7zm11.278-1.854c1.743 0 2.776 1.243 2.776 3.545s-1.034 3.545-2.776 3.545-2.776-1.242-2.776-3.545 1.034-3.545 2.776-3.545m0 6.441c1.25 0 1.989-.937 1.989-2.9s-.739-2.895-1.989-2.895-1.989.937-1.989 2.895.739 2.9 1.989 2.9m10.672.554v-6.9h2.283c1.537 0 2.374.669 2.374 1.816a1.8 1.8 0 0 1-1.419 1.8l1.507 3.286h-.857l-1.437-3.134h-1.662v3.134zm.788-3.784h1.424c1.081 0 1.654-.392 1.654-1.262 0-.926-.65-1.2-1.663-1.2h-1.418zm13.959-2.465v6.249h-.788v-6.249h-2.126v-.649h5.039v.649z"/></g></svg>